<svg width="108" height="73" viewBox="0 0 108 73" fill="none" xmlns="http://www.w3.org/2000/svg"><path d="M107.49 9.38148C107.399 9.56251 107.234 9.72845 107.218 9.90948C106.872 13.2736 104.761 15.7929 101.52 16.7735C99.9975 17.226 98.475 17.3769 96.9223 16.9997C93.8017 16.2605 91.6912 13.9524 91.2088 10.7543C90.8923 8.64228 90.9978 6.59063 92.0832 4.68984C93.3495 2.50241 95.3846 1.3559 97.7815 0.842991C100.57 0.239564 103.133 0.722305 105.213 2.81921C106.374 3.9959 107.007 5.45921 107.203 7.10354C107.234 7.31474 107.384 7.51086 107.49 7.70697C107.49 7.81257 107.49 7.90308 107.49 8.00868C107.475 8.02377 107.43 8.03886 107.43 8.05394C107.445 8.0992 107.46 8.12937 107.49 8.17463C107.49 8.43108 107.49 8.67245 107.49 8.92891C107.475 8.944 107.43 8.95908 107.43 8.97417C107.445 9.01942 107.46 9.04959 107.49 9.07977C107.49 9.17028 107.49 9.27588 107.49 9.38148ZM103.962 9.86422C103.857 7.49577 103.389 5.30835 101.626 3.5735C99.7111 1.6727 95.7163 1.43133 94.7062 5.48938C94.1937 7.60137 94.3746 9.72845 95.1585 11.765C95.656 13.0322 96.3796 14.1184 97.5705 14.8425C99.8769 16.2455 102.892 15.5364 103.555 12.4439C103.751 11.5991 103.842 10.7241 103.962 9.86422Z" fill="white"></path><path d="M107.49 8.17467C107.474 8.14449 107.444 8.09921 107.429 8.05394C107.429 8.05394 107.459 8.02376 107.49 8.00867C107.49 8.06903 107.49 8.11431 107.49 8.17467Z" fill="white"></path><path d="M107.49 9.07975C107.474 9.04956 107.444 9.00429 107.429 8.97411C107.429 8.97411 107.459 8.94392 107.49 8.92883C107.49 8.97411 107.49 9.01938 107.49 9.07975Z" fill="white"></path><path d="M27.8638 30.5919C28.3009 29.7622 28.6477 29.0531 29.0698 28.3743C29.1602 28.2234 29.5069 28.1631 29.7331 28.1631C36.4565 28.1782 43.195 28.1782 49.9184 28.2385C53.7927 28.2687 57.4559 29.2191 60.6518 31.4668C65.2798 34.6952 67.6165 39.2812 68.0838 44.8327C68.4607 49.2528 67.8727 53.5372 65.5512 57.4142C62.4759 62.5584 57.7876 65.4096 52.044 66.707C48.3808 67.5367 44.6573 67.4311 40.9488 67.4009C37.4364 67.3707 33.9239 67.3104 30.3964 67.2651C28.9341 67.2501 28.8436 67.0992 29.3562 65.6962C29.6125 65.0174 29.9743 64.5648 30.7582 64.595C31.0597 64.6101 31.3612 64.5195 31.6476 64.4592C33.2606 64.1273 33.8184 63.5993 33.9691 61.955C34.1199 60.4313 34.1802 58.8926 34.1802 57.3689C34.1953 49.9015 34.1802 42.4341 34.1651 34.9667C34.1651 34.5896 34.135 34.2124 34.0897 33.8353C33.9088 32.2966 33.3812 31.663 31.8586 31.2858C30.9843 31.0746 30.0798 30.9388 29.1904 30.788C28.8436 30.7276 28.4517 30.6824 27.8638 30.5919ZM40.3911 46.2659C40.3609 46.2659 40.3308 46.2659 40.2855 46.2659C40.2855 47.0956 40.2855 47.9253 40.2855 48.755C40.3157 52.451 40.3308 56.147 40.3911 59.843C40.4363 61.955 41.2805 63.1317 43.3156 63.72C44.5367 64.067 45.8181 64.2933 47.0844 64.3536C53.6721 64.6704 58.5112 61.3063 60.5614 55.0307C61.6317 51.7571 61.7975 48.3779 61.3905 44.9685C61.0136 41.8005 59.9584 38.9041 57.8479 36.4753C53.4912 31.4518 47.7326 30.6522 41.5669 31.2406C40.6926 31.3311 40.3911 31.8138 40.3911 32.7944C40.3911 37.2748 40.3911 41.7704 40.3911 46.2659Z" fill="white"></path><path d="M96.1077 45.1646C97.1027 45.5267 97.977 45.8133 98.8212 46.1754C107.022 49.5998 105.967 58.7266 101.655 62.6338C98.776 65.2286 95.369 66.6315 91.5701 67.1746C88.0426 67.6724 84.5 67.4462 80.9574 67.3707C78.2137 67.3104 75.4851 67.2651 72.7415 67.2199C72.5003 67.2199 72.244 67.2048 72.0179 67.1897C71.7616 65.832 72.5305 64.7609 73.7817 64.6251C74.445 64.5497 75.1083 64.3687 75.7716 64.2329C76.7364 64.0368 77.264 63.4183 77.3243 62.4528C77.4449 60.6274 77.5806 58.787 77.5806 56.9616C77.6107 49.449 77.6107 41.9212 77.6107 34.4085C77.6107 34.0767 77.6107 33.7599 77.5806 33.428C77.4298 32.0703 76.8871 31.4518 75.5454 31.1953C74.5354 30.9992 73.5103 30.8483 72.5003 30.7276C71.9878 30.6673 71.8219 30.4712 72.0179 29.9884C72.0782 29.8527 72.1084 29.7018 72.1687 29.5661C72.7114 28.2234 72.7114 28.2536 74.1284 28.2536C79.6308 28.2687 85.1331 28.2536 90.6204 28.2536C92.4596 28.2536 94.2836 28.4799 96.0323 29.0984C99.4393 30.2902 101.58 32.5379 101.912 36.2641C102.258 40.1411 100.374 42.7811 97.1479 44.6366C96.8614 44.7875 96.5449 44.9383 96.1077 45.1646ZM83.5653 54.3971C83.5955 54.3971 83.6407 54.3971 83.6709 54.3971C83.6709 56.3582 83.6256 58.3193 83.6859 60.2654C83.7613 62.5282 84.9522 63.8558 87.1833 64.1575C88.329 64.3083 89.4898 64.4441 90.6355 64.3536C91.8415 64.248 93.1078 64.0368 94.1932 63.5541C97.3589 62.1511 98.384 59.4055 98.3991 56.1772C98.4142 52.4963 96.5298 49.8563 93.0927 48.574C90.3038 47.5331 87.3793 47.5934 84.4698 47.6387C83.7312 47.6538 83.5503 47.9856 83.5503 48.6796C83.5955 50.5804 83.5653 52.4812 83.5653 54.3971ZM83.6859 38.2252C83.6407 38.2252 83.5955 38.2252 83.5653 38.2252C83.5653 40.1109 83.5653 41.9966 83.5653 43.8673C83.5653 44.2444 83.5201 44.6668 84.0779 44.697C86.6557 44.8327 89.2335 45.0289 91.7963 44.5009C93.153 44.2142 94.2535 43.475 94.8263 42.238C95.2937 41.2122 95.6555 40.0657 95.7308 38.9493C96.0173 35.0572 94.0575 32.3871 90.2435 31.5724C88.5551 31.2104 86.7612 31.2255 85.0125 31.1953C83.9573 31.1651 83.6859 31.5574 83.6859 32.6586C83.6859 34.5141 83.6859 36.3697 83.6859 38.2252Z" fill="white"></path><path d="M7.10488 0.752529C7.10488 1.47664 7.10488 2.21584 7.10488 3.13606C7.49683 2.92487 7.73803 2.80418 7.97923 2.66841C9.10985 2.08007 10.1953 1.35596 11.3711 0.918471C13.3911 0.164188 15.2152 0.827957 16.4212 2.62315C16.7981 3.18132 17.0393 3.21149 17.582 2.84944C18.4865 2.23092 19.4362 1.65767 20.4312 1.17493C23.6873 -0.378896 27.1998 1.38613 27.5315 5.56486C27.7274 8.08417 27.5767 10.6336 27.5918 13.168C27.5918 14.7973 27.848 15.1141 29.4611 15.4158C29.8681 15.4912 30.3505 15.4761 30.2751 16.1399C30.2299 16.5774 30.0641 16.8188 29.5666 16.8037C27.3355 16.7886 25.0893 16.8037 22.8582 16.7735C22.6622 16.7735 22.3004 16.5171 22.3155 16.3813C22.3306 16.0947 22.4813 15.7779 22.6472 15.5214C22.7225 15.4158 22.9637 15.4309 23.1446 15.3856C24.2451 15.099 24.5165 14.7671 24.5315 13.6508C24.5466 11.4181 24.5768 9.17033 24.5165 6.93765C24.4712 4.79549 23.3858 3.43778 21.4713 3.12098C19.9789 2.87961 18.6674 3.49812 17.5066 4.40326C17.3559 4.52395 17.3106 4.85583 17.3106 5.08212C17.3408 7.99365 17.386 10.9052 17.4312 13.8167C17.4463 14.7973 17.6423 15.0236 18.6071 15.2649C18.8784 15.3404 19.1347 15.4158 19.4061 15.4611C19.8885 15.5516 19.9488 15.9136 19.8282 16.2455C19.7528 16.4567 19.4664 16.7433 19.2553 16.7584C16.9488 16.7886 14.6273 16.7886 12.3208 16.7584C12.1248 16.7584 11.763 16.4416 11.763 16.2757C11.763 16.0192 11.959 15.6572 12.1701 15.5365C12.5017 15.3555 12.9389 15.3404 13.3308 15.2348C13.9489 15.0688 14.2655 14.6464 14.2655 14.0279C14.2806 11.4634 14.3409 8.91388 14.2504 6.34931C14.16 3.78475 12.0796 2.39687 9.6224 3.13606C9.42643 3.19641 9.23045 3.25675 9.04955 3.31709C7.22548 4.01103 7.02951 4.29766 7.02951 6.24371C7.02951 8.68759 7.02951 11.1164 7.02951 13.5603C7.02951 14.7973 7.33101 15.1292 8.55208 15.3856C8.86865 15.446 9.29075 15.5817 9.41135 15.8231C9.69778 16.3813 9.3812 16.7735 8.73298 16.7735C6.51696 16.7735 4.31601 16.7735 2.09999 16.7735C1.75327 16.7735 1.37639 16.8188 1.31609 16.3059C1.25579 15.8231 1.42162 15.5214 1.93417 15.4611C2.03969 15.446 2.13014 15.4158 2.23567 15.4007C3.71301 15.1443 4.02959 14.7822 4.04466 13.2887C4.07481 11.056 4.05974 8.80828 4.07481 6.5756C4.07481 6.39457 4.07481 6.22863 4.07481 6.0476C4.07481 3.92052 4.04466 3.86018 2.05477 3.10589C1.91909 3.04555 1.75327 3.03047 1.63267 2.95504C1.46684 2.81927 1.21057 2.60807 1.24072 2.50247C1.30102 2.30635 1.51207 2.06498 1.70804 2.01973C3.45674 1.58224 5.22051 1.19001 7.10488 0.752529Z" fill="white"></path><path d="M76.677 17.2714C76.0137 16.7132 75.3052 16.2757 74.8228 15.6874C74.0238 14.7068 74.1444 14.3448 75.1997 13.681C75.7876 13.3038 76.3755 12.9267 76.9634 12.5345C77.0388 12.4892 77.084 12.3836 77.2046 12.2328C77.0237 12.1272 76.873 11.9914 76.7072 11.931C74.5514 11.1013 73.5716 9.42683 73.4359 7.20924C73.3002 4.94639 74.1746 3.12102 76.1795 1.97451C78.682 0.526284 81.305 0.179314 84.0487 1.32582C85.2999 1.85382 86.6114 2.08011 87.938 1.64262C88.3149 1.52194 88.6465 1.26548 88.9933 1.08445C89.8375 2.74388 88.6918 3.84513 86.0989 3.78479C86.129 4.01107 86.129 4.22227 86.1742 4.43347C86.9129 8.88374 84.2447 11.388 80.5061 12.1121C80.0689 12.2026 79.5714 12.1272 79.1795 12.2931C78.7724 12.4741 78.29 12.8211 78.1544 13.2133C77.9433 13.8017 78.3956 14.2392 78.9533 14.3598C79.6619 14.5258 80.3855 14.5861 81.1091 14.6616C82.496 14.8124 83.8979 14.9482 85.2848 15.099C88.0435 15.3857 89.551 17.8748 88.6918 20.7109C88.0888 22.6871 86.7471 24.0298 85.0286 25.0405C82.1794 26.7301 79.1493 27.1374 75.9986 25.9607C74.1293 25.2668 72.7575 23.4565 72.848 21.7669C72.8781 21.1182 73.1796 20.379 73.6017 19.8963C74.265 19.1269 75.1394 18.5386 75.9233 17.8899C76.1795 17.6485 76.4509 17.4373 76.677 17.2714ZM80.1292 17.4071C78.878 17.3468 77.8679 17.739 76.9182 18.5386C75.3655 19.8359 75.26 21.8122 76.7524 23.185C78.7272 24.9952 82.707 25.1612 84.8175 23.4867C85.9029 22.6268 86.2948 21.4652 86.0536 20.1226C85.8275 18.8855 84.8929 18.267 83.7623 17.9955C82.5713 17.739 81.3352 17.6033 80.1292 17.4071ZM83.3703 6.39461C83.1291 5.64033 82.9331 4.65976 82.511 3.78479C81.893 2.50251 80.4156 1.89908 78.9232 2.15554C77.8076 2.35165 76.7825 3.31713 76.6619 4.67484C76.5564 5.7761 76.677 6.92261 76.9182 8.00878C77.0539 8.64237 77.5061 9.29106 77.9885 9.7738C79.692 11.4785 82.2095 10.8449 82.9482 8.58203C83.1442 7.96352 83.1894 7.29975 83.3703 6.39461Z" fill="white"></path><path d="M58.0131 3.09078C58.9478 2.47227 59.6865 1.9141 60.4854 1.46153C61.6462 0.797762 62.8673 0.360278 64.2843 0.541306C66.636 0.858105 68.249 2.80416 68.4299 5.14244C68.6108 7.72208 68.5656 10.3168 68.6259 12.8965C68.6259 13.1228 68.6259 13.349 68.6259 13.5753C68.6711 14.6766 68.9274 14.9632 70.0128 15.2197C70.2389 15.2649 70.45 15.3253 70.6761 15.3554C71.1284 15.4007 71.3846 15.5968 71.2942 16.0795C71.2188 16.5019 71.2037 16.9545 70.5254 16.9394C68.234 16.8942 65.9577 16.9243 63.6663 16.9243C63.2442 16.9243 62.9728 16.8338 63.018 16.3511C63.0482 15.9438 62.8221 15.3856 63.5909 15.3705C63.8924 15.3705 64.1788 15.2649 64.4652 15.1895C65.0079 15.0236 65.2944 14.6766 65.2944 14.0882C65.2793 11.5689 65.3396 9.06471 65.2642 6.5454C65.1888 4.16187 63.1085 2.68347 60.802 3.25673C60.5608 3.31707 60.3196 3.3925 60.0784 3.48301C58.39 4.07135 58.0584 4.50884 58.0734 6.30403C58.1036 8.68757 58.194 11.0711 58.179 13.4546C58.179 15.0236 58.5106 15.1895 59.8975 15.3554C60.6362 15.4459 60.7568 15.7778 60.606 16.3209C60.5457 16.5623 60.2442 16.9093 60.0483 16.9093C57.6363 16.9545 55.2243 16.9394 52.8123 16.9093C52.6465 16.9093 52.345 16.5925 52.345 16.4265C52.36 16.0795 52.5108 15.7326 52.6766 15.4158C52.7369 15.3102 53.0083 15.3253 53.1741 15.2951C54.5459 15.0085 54.7117 14.7822 54.7268 13.3641C54.7569 11.6142 54.8323 9.84916 54.8474 8.09923C54.8474 6.99797 54.8172 5.88163 54.7117 4.79546C54.6816 4.47867 54.4404 4.08644 54.169 3.9205C53.6414 3.6037 53.0083 3.43775 52.4656 3.15113C52.2244 3.03044 51.9229 2.7589 51.9229 2.56279C51.9229 2.36667 52.2394 2.04987 52.4806 1.98953C54.169 1.52187 55.8725 1.08439 57.5609 0.661991C58.0282 0.541306 58.1337 0.812848 58.1187 1.20508C58.0885 1.77833 58.0584 2.35159 58.0131 3.09078Z" fill="white"></path><path d="M49.3153 8.94403C49.3605 14.1033 45.4561 17.1205 40.7678 17.1959C36.4262 17.2713 33.2906 14.1637 33.17 9.80391C33.1398 8.64232 33.1398 7.42038 33.4413 6.31912C34.3006 3.21148 36.6071 1.6124 39.607 0.903369C42.5466 0.209429 45.1998 0.707256 47.3404 2.97011C48.8479 4.56919 49.3454 6.53032 49.3153 8.94403ZM36.3357 7.78243C36.5166 10.3168 37.0292 12.6551 39.0191 14.405C40.21 15.446 41.612 15.8382 43.1496 15.3554C44.6269 14.9029 45.3355 13.7413 45.652 12.3081C46.0289 10.6185 46.0138 8.92894 45.637 7.23935C45.2601 5.56484 44.5516 4.04119 43.0592 3.06062C40.9487 1.65765 38.0241 1.91411 36.9538 4.85581C36.6071 5.79113 36.5317 6.80187 36.3357 7.78243Z" fill="white"></path><path d="M24.336 47.8198C24.1853 49.3586 23.7933 50.8671 23.522 52.3908C22.7532 55.6644 21.1854 58.5457 19.1503 61.1857C17.8237 62.9055 16.3162 64.4291 14.5524 65.6812C14.266 65.4248 13.9946 65.1683 13.7082 64.9119C13.5725 64.7007 13.4368 64.4895 13.2861 64.2783C13.075 63.1469 12.864 62.0003 12.653 60.8689C12.653 60.2504 12.668 59.6319 12.668 59.0134C12.7736 57.2484 12.864 55.4984 12.9695 53.7334C13.0147 53.0244 13.075 52.3304 13.1203 51.6214C13.1203 51.1537 13.1353 50.671 13.1203 50.2033C13.075 49.268 13.0298 48.3327 12.9846 47.3974C12.9846 45.0893 12.9846 42.7661 12.9846 40.458C12.9846 40.111 12.9846 39.749 12.9695 39.402C12.9695 36.943 12.9695 34.469 12.9544 32.01C12.9092 30.1092 12.8791 28.2084 12.8188 26.3076C12.7886 25.312 12.7283 24.3163 12.6982 23.3207C12.653 22.2798 12.6077 21.2238 12.5625 20.1829C13.5574 22.6871 15.5624 24.4219 17.2508 26.3982C20.4015 30.064 22.3612 34.3332 23.5974 38.9645C24.4717 41.861 24.6375 44.8329 24.336 47.8198Z" fill="#439934"></path><path d="M13.1205 51.6214C13.0753 52.3304 13.015 53.0243 12.9698 53.7334C12.8642 55.4984 12.7738 57.2483 12.6683 59.0133C12.6683 59.6319 12.6532 60.2504 12.6532 60.8689C12.5477 61.4572 12.4421 62.0456 12.3366 62.6339C12.0803 63.7955 11.8241 64.9571 11.5678 66.1338C10.9799 65.6209 10.3919 65.1231 9.78893 64.6101C8.91459 63.705 8.04024 62.8149 7.16589 61.9098C4.31672 58.772 2.37205 55.1514 1.36203 51.033C1.06053 49.8262 0.804255 48.2724 0.72888 47.337C0.668581 46.2207 0.69873 43.2036 0.81933 42.8566C1.00023 41.5592 1.1962 40.2619 1.3771 38.9645C1.63338 37.9085 1.88965 36.8525 2.14593 35.7814C2.49265 34.8763 2.83938 33.9711 3.1861 33.0811C3.6082 32.1759 4.04537 31.2557 4.46747 30.3506C4.91972 29.5963 5.37197 28.842 5.83929 28.0877C6.44229 27.2731 7.06037 26.4434 7.66336 25.6288C8.37189 24.8745 9.08041 24.1202 9.78893 23.3659C10.0603 23.1095 10.3015 22.8077 10.5879 22.5815C11.5075 21.8875 12.1859 21.0276 12.4572 19.851C12.4874 19.9566 12.5175 20.0622 12.5627 20.1828C12.608 21.2237 12.6532 22.2797 12.6984 23.3207C12.7436 24.3163 12.8039 25.312 12.819 26.3076C12.8793 28.2084 12.9095 30.1092 12.9547 32.01C12.9547 34.469 12.9547 36.943 12.9698 39.402C12.9698 39.7489 12.9848 40.111 12.9848 40.458C12.9848 42.7661 12.9848 45.0893 12.9848 47.3974C13.0301 48.3327 13.0904 49.268 13.1205 50.2033C13.1356 50.6861 13.1205 51.1537 13.1205 51.6214Z" fill="#53AB43"></path><path d="M14.5528 65.6812C14.2814 66.4355 14.0101 67.1747 13.7387 67.9138C13.7237 68.3966 13.7086 68.8793 13.6935 69.3621C13.6332 70.1918 13.6031 71.0064 13.5126 71.821C13.4674 72.2133 13.181 72.3792 12.7589 72.2887C12.2915 72.1831 12.3669 71.8663 12.4121 71.5344C12.3971 70.9762 12.382 70.4181 12.3669 69.875C12.2915 69.3168 12.2011 68.7737 12.1257 68.2156C12.0503 67.8082 11.975 67.416 11.8996 67.0087C11.7941 66.707 11.6885 66.4053 11.583 66.1187C11.8393 64.9571 12.0956 63.7955 12.3518 62.6188C12.4574 62.0304 12.5629 61.4421 12.6684 60.8538C12.8795 61.9852 13.0905 63.1317 13.3016 64.2631C13.4372 64.4743 13.5729 64.6855 13.7237 64.8967C13.9799 65.1683 14.2664 65.4247 14.5528 65.6812Z" fill="#D9D7C4"></path></svg>