<svg width="43" height="42" viewBox="0 0 43 42" fill="none" xmlns="http://www.w3.org/2000/svg">
<path fill-rule="evenodd" clip-rule="evenodd" d="M0.5 21C0.5 9.40202 9.90202 0 21.5 0C33.098 0 42.5 9.40202 42.5 21C42.5 32.598 33.098 42 21.5 42C9.90202 42 0.5 32.598 0.5 21ZM21.501 9.8C18.4593 9.8 18.0775 9.8133 16.8829 9.86767C15.6905 9.92227 14.8766 10.111 14.1645 10.388C13.4279 10.6741 12.803 11.0567 12.1805 11.6795C11.5574 12.3021 11.1748 12.9269 10.8878 13.6633C10.6101 14.3757 10.4211 15.1898 10.3674 16.3817C10.314 17.5764 10.3 17.9584 10.3 21.0001C10.3 24.0419 10.3135 24.4225 10.3677 25.6171C10.4225 26.8095 10.6113 27.6234 10.888 28.3355C11.1743 29.0721 11.557 29.697 12.1798 30.3195C12.8021 30.9426 13.4269 31.3262 14.1631 31.6122C14.8757 31.8892 15.6898 32.078 16.8819 32.1326C18.0766 32.1869 18.4581 32.2002 21.4996 32.2002C24.5416 32.2002 24.9222 32.1869 26.1169 32.1326C27.3092 32.078 28.1241 31.8892 28.8367 31.6122C29.5731 31.3262 30.197 30.9426 30.8193 30.3195C31.4423 29.697 31.825 29.0721 32.112 28.3357C32.3873 27.6234 32.5763 26.8092 32.6323 25.6174C32.686 24.4227 32.7 24.0419 32.7 21.0001C32.7 17.9584 32.686 17.5766 32.6323 16.3819C32.5763 15.1896 32.3873 14.3757 32.112 13.6636C31.825 12.9269 31.4423 12.3021 30.8193 11.6795C30.1963 11.0565 29.5733 10.6738 28.836 10.388C28.122 10.111 27.3076 9.92227 26.1153 9.86767C24.9206 9.8133 24.5402 9.8 21.4976 9.8H21.501Z" fill="#F2F2F2"/>
<path fill-rule="evenodd" clip-rule="evenodd" d="M20.4963 11.8184C20.7945 11.8179 21.1272 11.8184 21.501 11.8184C24.4915 11.8184 24.8459 11.8291 26.0268 11.8828C27.1188 11.9327 27.7115 12.1152 28.1063 12.2685C28.629 12.4715 29.0016 12.7141 29.3934 13.1061C29.7854 13.4981 30.0281 13.8715 30.2315 14.3941C30.3848 14.7885 30.5675 15.3812 30.6172 16.4732C30.6709 17.6538 30.6826 18.0085 30.6826 20.9976C30.6826 23.9866 30.6709 24.3412 30.6172 25.5219C30.5673 26.6139 30.3848 27.2066 30.2315 27.601C30.0285 28.1236 29.7854 28.4958 29.3934 28.8876C29.0014 29.2796 28.6292 29.5222 28.1063 29.7252C27.712 29.8792 27.1188 30.0612 26.0268 30.1112C24.8461 30.1648 24.4915 30.1765 21.501 30.1765C18.5104 30.1765 18.1559 30.1648 16.9753 30.1112C15.8833 30.0608 15.2906 29.8783 14.8955 29.725C14.3729 29.522 13.9995 29.2793 13.6075 28.8873C13.2155 28.4953 12.9729 28.1229 12.7694 27.6C12.6161 27.2057 12.4334 26.613 12.3837 25.521C12.33 24.3403 12.3193 23.9856 12.3193 20.9947C12.3193 18.0039 12.33 17.651 12.3837 16.4704C12.4336 15.3784 12.6161 14.7857 12.7694 14.3909C12.9724 13.8682 13.2155 13.4949 13.6075 13.1029C13.9995 12.7109 14.3729 12.4682 14.8955 12.2647C15.2904 12.1107 15.8833 11.9287 16.9753 11.8786C18.0085 11.8319 18.4089 11.8179 20.4963 11.8156V11.8184ZM27.4796 13.678C26.7376 13.678 26.1356 14.2793 26.1356 15.0216C26.1356 15.7636 26.7376 16.3656 27.4796 16.3656C28.2216 16.3656 28.8236 15.7636 28.8236 15.0216C28.8236 14.2796 28.2216 13.678 27.4796 13.678ZM21.501 15.2484C18.3246 15.2484 15.7493 17.8237 15.7493 21.0001C15.7493 24.1765 18.3246 26.7507 21.501 26.7507C24.6775 26.7507 27.2518 24.1765 27.2518 21.0001C27.2518 17.8237 24.6775 15.2484 21.501 15.2484Z" fill="#F2F2F2"/>
<path fill-rule="evenodd" clip-rule="evenodd" d="M21.5011 17.2667C23.5628 17.2667 25.2344 18.9381 25.2344 21.0001C25.2344 23.0619 23.5628 24.7335 21.5011 24.7335C19.4391 24.7335 17.7677 23.0619 17.7677 21.0001C17.7677 18.9381 19.4391 17.2667 21.5011 17.2667Z" fill="#F2F2F2"/>
</svg>
