<svg width="43" height="42" viewBox="0 0 43 42" fill="none" xmlns="http://www.w3.org/2000/svg">
<path d="M22.8125 42C21.9348 42 21.0652 42 20.1875 42C20.0809 41.9754 19.9824 41.9426 19.8758 41.9344C15.6922 41.5981 11.927 40.1711 8.6293 37.5794C4.38828 34.2414 1.76328 29.911 0.819922 24.5882C0.680469 23.8336 0.606641 23.0709 0.5 22.3163C0.5 21.4388 0.5 20.5694 0.5 19.6919C0.557422 19.1916 0.614844 18.6913 0.680469 18.191C1.2793 13.918 3.00195 10.1617 5.89766 6.96309C9.13789 3.37903 13.1492 1.14821 17.9234 0.319859C18.6781 0.188635 19.4328 0.10662 20.1875 0C21.0652 0 21.9348 0 22.8125 0C22.9191 0.0246046 23.0258 0.0574107 23.1242 0.0656122C26.2906 0.303456 29.2684 1.18922 32 2.82132C37.5617 6.14294 40.9824 10.9982 42.1801 17.379C42.3195 18.1418 42.3934 18.9127 42.5 19.6837C42.5 20.5612 42.5 21.4306 42.5 22.3081C42.4754 22.4148 42.4426 22.5214 42.4344 22.628C42.1555 26.2285 41.048 29.5501 39.0301 32.5436C35.6832 37.5056 31.0566 40.5647 25.1586 41.6719C24.3793 41.8196 23.5918 41.8934 22.8125 42ZM27.7426 31.6661C29.3504 31.6661 30.909 31.6661 32.5004 31.6661C32.5004 31.4939 32.5004 31.3544 32.5004 31.2068C32.5004 28.976 32.5086 26.7534 32.5004 24.5226C32.4922 23.7024 32.4922 22.8823 32.4102 22.0703C32.123 19.2736 30.4496 17.461 27.7918 17.1166C25.8395 16.8623 24.166 17.42 22.9766 19.0849C22.9273 19.1588 22.8617 19.2244 22.7387 19.3802C22.7387 18.6585 22.7387 18.0434 22.7387 17.4282C21.1309 17.4282 19.5641 17.4282 18.0137 17.4282C18.0137 22.1933 18.0137 26.9256 18.0137 31.6579C19.5969 31.6579 21.1473 31.6579 22.7387 31.6579C22.7387 31.4857 22.7387 31.338 22.7387 31.1904C22.7387 28.6643 22.7469 26.1301 22.7387 23.604C22.7387 22.7674 23.0094 22.0457 23.6246 21.4716C25.0027 20.184 27.1109 20.7663 27.5703 22.5788C27.6934 23.0791 27.7426 23.604 27.7426 24.1207C27.759 26.4171 27.7508 28.7135 27.7508 31.01C27.7426 31.2232 27.7426 31.42 27.7426 31.6661ZM10.6062 17.4118C10.6062 22.1769 10.6062 26.9092 10.6062 31.6579C12.1895 31.6579 13.748 31.6579 15.3148 31.6579C15.3148 26.8928 15.3148 22.1687 15.3148 17.4118C13.748 17.4118 12.1977 17.4118 10.6062 17.4118ZM12.9605 15.4353C14.4945 15.4353 15.5609 14.5085 15.6594 13.106C15.7414 11.802 14.8227 10.7358 13.4281 10.5308C12.0828 10.3339 10.8277 11.0146 10.4422 12.1465C9.85156 13.8524 11.0656 15.4435 12.9605 15.4353Z" fill="#F2F2F2"/>
</svg>
